<?xml version="1.0" encoding="utf-8"?>
<!-- Generator: Adobe Illustrator 19.2.1, SVG Export Plug-In . SVG Version: 6.00 Build 0)  -->
<svg version="1.1" id="layer" xmlns="http://www.w3.org/2000/svg" xmlns:xlink="http://www.w3.org/1999/xlink" x="0px" y="0px"
	 viewBox="0 0 652 652" style="enable-background:new 0 0 652 652;" xml:space="preserve">
<path d="M101.8,348.2l-39.5-58.7H21.7v117.4h40.6v-58.7l39.5,58.7h41.8V289.5h-41.8V348.2z M118.8,242.7c4.7,0,8.5,3.8,8.5,8.5
	c0,4.7-3.8,8.5-8.5,8.5c-4.7,0-8.5-3.8-8.5-8.5l0,0C110.3,246.6,114,242.8,118.8,242.7C118.7,242.7,118.7,242.7,118.8,242.7
	 M118.8,280.6c16.2,0,29.4-13.2,29.4-29.4c0-16.2-13.2-29.4-29.4-29.4S89.4,235,89.4,251.2C89.4,267.4,102.5,280.6,118.8,280.6
	 M51.1,280.6c16.2,0,29.4-9.2,29.4-29.4V224h-22v28.5c0.3,3.8-2.5,7.1-6.3,7.3c-0.4,0-0.7,0-1.1,0c-3.8,0.3-7.1-2.5-7.3-6.3
	c0-0.4,0-0.7,0-1.1V224h-22v27.2C21.7,271.4,34.8,280.6,51.1,280.6 M156.9,289.9h15.7V321c-0.3,2.2,0.4,4.3,1.8,6
	c1.4,1.2,3.2,1.9,5,1.8c1.8,0.1,3.6-0.6,5-1.7c1.5-1.7,2.2-3.9,1.9-6.1v-31.1h15.8v26.4c0,5.7,0,13-5.8,18.6
	c-4.7,4.1-10.8,6.2-17,5.9c-6.3,0.3-12.4-1.9-17.3-5.9c-4.9-4.8-5-10.3-5.1-15.5V289.9z M220.2,307.9c2.6-4,7.2-6.2,11.9-5.8
	c3.6-0.2,7.1,1,9.8,3.4c2.7,3,4,7,3.7,11v22.8H231v-19.8c0-1.8,0-5.5-4.9-5.5s-5.3,4-5.3,6v19.4h-14.3v-36.3h13.7V307.9z
	 M250.3,303.1h14.4v36.3h-14.4V303.1z M250.3,289.9h14.4v9.6h-14.4V289.9z M267.8,303.1h15.3l2.9,13.5c0.8,4.3,0.9,5.4,1.5,11
	c0.6-4.9,0.8-6.2,1.8-11.5l2.9-12.8h15.2L295,339.4h-15.3L267.8,303.1z M331.8,316.2c0-0.6,0-1.1-0.2-1.7c-0.6-2.2-2.6-3.7-4.8-3.7
	c-3,0.1-5.4,2.4-5.5,5.4L331.8,316.2z M345.8,330.9c-4.1,6.6-11.5,10.4-19.2,10c-10.4,0.7-19.5-7.3-20.1-17.7c0-0.7-0.1-1.5,0-2.2
	c-0.4-10.3,7.6-19,17.8-19.4c0.8,0,1.5,0,2.3,0c5.4-0.2,10.7,1.8,14.7,5.4c5.3,5.3,5.4,11.3,5.5,16.8h-25.6
	c-0.1,1.9,0.5,3.7,1.8,5.1c1.2,1.1,2.7,1.7,4.3,1.7c3,0,5.7-1.9,6.6-4.7L345.8,330.9z M363,306.3c3.2-3.1,7.7-4.5,12.2-3.9v12.2
	c-1,0-2,0-2.9,0c-8.5,0-8.6,5.5-8.7,7.9v16.9h-14.4v-36.5H363L363,306.3z M383.8,326.2c2.9,3.1,7,4.9,11.2,4.9
	c1.8,0,3.7-0.6,3.7-2.2c0-1.6-2.2-2.2-3.7-2.4c-2.5-0.4-5-1-7.5-1.8c-3.3-1-10-2.9-10-10.7c0-3.2,1.4-6.1,3.7-8.3
	c3.6-2.9,8.2-4.4,12.8-4.2c2.8,0,5.5,0.3,8.2,1c3.3,0.7,6.5,2.1,9.1,4.3l-7.7,7.2c-2.7-2-6-3.2-9.3-3.5c-0.6,0-3.1,0-3.1,1.9
	c0,1.3,1,1.5,5.8,2.7c3.4,0.5,6.6,1.5,9.8,2.8c3.6,1.8,5.8,5.5,5.7,9.5c0,7.2-6,13.5-17.3,13.5c-7.2,0.1-14.1-2.6-19.4-7.3
	L383.8,326.2z M416.2,303.1h14.4v36.3h-14.4V303.1z M416.2,289.9h14.4v9.6h-14.4V289.9z M440.1,292.5h14.5v10.6h6.2v7.9h-6.3v14.7
	c0,1.4,0,3.7,3.9,3.7c0.9,0,1.7-0.1,2.6-0.3v9.9c-3,0.4-6.1,0.7-9.1,0.8c-3.4,0.2-6.8-0.9-9.6-3c-1.8-2-2.7-4.7-2.5-7.3l0.2-18.4h-5
	v-7.9h5.1L440.1,292.5z M463,303.1h15.1l3.7,15.6c0.8,4.3,1,5.3,1.7,10.7c0.4-3.7,1-7.4,1.8-11l3.7-15.2h15l-13.3,38.5
	c-0.8,2.9-2.3,5.7-4.3,7.9c-2.7,2.5-6.4,3.7-10.1,3.1c-2.6,0-5.1-0.1-7.6-0.5v-10.3c1.2,0,2.7,0.2,4.1,0.2c1.9,0,3.1-0.4,3.1-1.8
	c-0.3-1.3-0.7-2.5-1.1-3.7L463,303.1z M536.7,321c0,3.5,0.8,9.6,6.7,9.6c5,0,6.6-4.3,6.6-9.8c0-2.2,0-9.5-6.7-9.3
	C537.8,311.6,536.7,316.9,536.7,321 M559,306.7c3.8,3.9,5.8,9.2,5.7,14.7c0,11.4-7.9,19.5-21.7,19.5c-14.7,0-20.7-9.6-20.7-19.3
	c0-11.9,8.1-20.1,21.5-20c5.6-0.2,11,1.7,15.2,5.3 M571.5,300.3c-0.2-2.8,0.7-5.7,2.6-7.8c3-2.6,6.9-3.8,10.8-3.4
	c2.5,0,5.1,0.3,7.6,0.9v9.9c-0.9-0.3-1.8-0.5-2.7-0.5c-3.9,0-3.7,2.6-3.7,4.6h6.5v7.9h-6.5v27.6h-14.4v-27.6h-5.4v-7.9h5.4
	L571.5,300.3z M156.9,357.5h16.6l11,18.7c2.8,5.1,3.7,6.6,6.1,12.2c-0.4-4.8-0.5-5.9-0.7-11.5v-19.4h14.7V407h-16.7l-10-17.1
	c-2.5-4.2-4.8-8.6-6.9-13.1c0.3,4.5,0.4,5.6,0.5,10.1V407h-14.7L156.9,357.5z M222.5,388.7c0,3.7,0.8,9.6,6.8,9.6
	c5,0,6.6-4.3,6.6-9.8c0-2.2,0-9.4-6.7-9.3C223.7,379.3,222.5,384.6,222.5,388.7 M244.9,374.4c3.7,3.9,5.8,9.1,5.7,14.5
	c0,11.4-7.9,19.5-21.7,19.5c-14.7,0-20.7-9.6-20.7-19.3c0-11.9,8-20.1,21.5-20C235.2,368.9,240.6,370.8,244.9,374.4 M267.8,373.8
	c3.2-3.1,7.7-4.5,12.1-3.9v12.2c-1,0-1.9,0-2.9,0c-8.5,0-8.6,5.5-8.7,7.9v17.1h-14.4v-36.7h14V373.8z M288.6,360.1h14.5v10.5h6.2
	v7.8h-6.5v15c0,1.4,0,3.7,3.9,3.7c0.9,0,1.7-0.1,2.6-0.3v9.9c-3,0.5-6.1,0.7-9.1,0.8c-3.4,0.2-6.8-0.9-9.6-3c-1.8-2-2.7-4.7-2.5-7.3
	l0.2-18.6h-5.1v-7.8h5.1L288.6,360.1z M313.8,357.4h14.4v16.9c2.7-3.6,7.1-5.6,11.6-5.2c3.7-0.1,7.3,1.2,10.1,3.7
	c2.4,2.9,3.6,6.7,3.3,10.4V407h-14.4v-20.8c0.3-2.5-1.4-4.8-3.9-5.2c-0.4-0.1-0.8-0.1-1.3,0c-5.4,0-5.4,3.7-5.4,5.5V407h-14.4V357.4
	z M376.2,391.5c-1.2,0.3-2.5,0.6-3.7,1c-2.8,1.1-2.9,2.8-2.9,3.2c0,1,0.8,2.8,3.7,2.8c2.7-0.1,5.2-1.7,6.5-4
	c0.6-1.3,0.8-2.8,0.7-4.3l-4.3,1.4 M357.4,381.7c0.3-4.2,2.8-7.8,6.5-9.7c4.1-1.8,8.6-2.7,13-2.5c17.3,0,17.3,8.9,17.3,13.3v19.8
	c-0.2,1.6,0.2,3.2,1.2,4.5h-14.2v-2.8c-3.5,2.6-7.7,3.9-12,3.7c-9.1,0-13.1-5.5-13.1-11.7c-0.1-2.9,1-5.7,3.1-7.8
	c3.3-3.4,7.3-3.9,13.6-4.8c2.6-0.3,5.2-0.8,7.8-1.5c0-2.5-0.8-4.2-4.9-4.2c-3.3,0-4.2,0.8-4.7,3.4L357.4,381.7z M412.5,376.1
	c2.3-4.2,6.8-6.6,11.5-6.1c1.9,0,3.7,0.3,5.5,0.8c3.1,0.8,5.8,2.9,7.1,5.8c2.4-4.7,7.4-7.4,12.6-6.8c3.7-0.1,7.3,1.2,10.1,3.7
	c2.6,2.9,3.8,6.7,3.4,10.6v23h-14.4v-19c0-2.3,0-6.2-5.1-6.2c-2.8-0.2-5.2,1.9-5.4,4.6c0,0.4,0,0.9,0.1,1.3v19.4h-14.5v-19.7
	c0.1-0.7,0.1-1.4,0-2.1c-0.5-2.3-2.5-3.8-4.8-3.7c-1.4,0-2.9,0.5-3.9,1.5c-1,1.1-1.5,2.6-1.4,4.1V407H399v-36.4h13.8L412.5,376.1z
	 M483.3,381.7c-1.7,2.1-2.4,4.7-2.1,7.3c-0.1,1.7,0.1,3.4,0.6,5c0.7,2.2,2.7,3.7,5,3.7c1.4,0,2.7-0.6,3.7-1.5c1.5-2,2.3-4.5,2.1-6.9
	c0-2.9-0.3-8.9-5.4-9.1C485.7,380.1,484.3,380.6,483.3,381.7 M481.2,373.4c2.5-2.7,6.1-4,9.7-3.7c11.7,0,15.8,9.8,15.8,19.4
	c0,10.6-5,18.9-16,18.9c-3.5,0.3-6.9-0.9-9.4-3.4v15.6h-14.3v-49.6h14.1V373.4z M513.3,360.1H528v10.5h6.2v7.8H528v15
	c0,1.4,0,3.7,3.9,3.7c0.9,0,1.7-0.1,2.6-0.3v9.9c-3,0.5-6.1,0.7-9.1,0.8c-3.4,0.2-6.8-0.9-9.6-3c-1.8-2-2.7-4.7-2.5-7.3l0.2-18.6h-5
	v-7.8h5L513.3,360.1z M551.2,388.7c0,3.7,0.8,9.6,6.8,9.6c5,0,6.6-4.3,6.6-9.8c0-2.2,0-9.4-6.7-9.3
	C552.5,379.3,551.2,384.6,551.2,388.7 M573.6,374.4c3.7,3.9,5.8,9.1,5.7,14.5c0,11.4-7.9,19.5-21.7,19.5c-14.7,0-20.7-9.6-20.7-19.3
	c0-11.9,8-20.1,21.5-20C563.9,368.9,569.3,370.8,573.6,374.4 M596.2,375.5c2.6-4,7.2-6.2,11.9-5.8c3.6-0.2,7.1,1,9.8,3.4
	c2.7,3,4,7,3.7,11v23h-14.5v-19.9c0-1.8,0-5.5-4.9-5.5c-4.9,0-5.3,4-5.3,6V407h-14.4v-36.4h13.7L596.2,375.5z"/>
</svg>
