<?xml version="1.0" encoding="UTF-8"?>
<svg xmlns="http://www.w3.org/2000/svg" xmlns:xlink="http://www.w3.org/1999/xlink" width="179.74pt" height="23.94pt" viewBox="0 0 179.74 23.94" version="1.1">
<defs>
<clipPath id="clip1">
  <path d="M 75 0 L 179.738281 0 L 179.738281 23.941406 L 75 23.941406 Z M 75 0 "/>
</clipPath>
<clipPath id="clip2">
  <path d="M 0 0 L 73 0 L 73 23.941406 L 0 23.941406 Z M 0 0 "/>
</clipPath>
</defs>
<g id="surface1">
<g clip-path="url(#clip1)" clip-rule="nonzero">
<path style=" stroke:none;fill-rule:nonzero;fill:rgb(13.725281%,12.156677%,12.548828%);fill-opacity:1;" d="M 170.4375 23.941406 C 176.429688 23.941406 179.742188 20.960938 179.742188 16.472656 C 179.742188 8.171875 167.121094 10.246094 167.121094 7.5 C 167.121094 6.53125 167.859375 5.960938 169.53125 5.960938 C 171.742188 5.960938 174.1875 6.730469 176.0625 8.304688 L 179.207031 3.988281 C 176.832031 1.945313 173.71875 0.871094 170.136719 0.871094 C 164.410156 0.871094 161.265625 4.21875 161.265625 7.96875 C 161.265625 16.574219 173.886719 14.128906 173.886719 17.078125 C 173.886719 18.179688 172.679688 18.851563 170.738281 18.851563 C 167.660156 18.851563 165.179688 17.511719 163.574219 15.90625 L 160.527344 20.390625 C 162.769531 22.5 165.917969 23.941406 170.4375 23.941406 M 151.355469 15.300781 L 145.695313 15.300781 L 148.542969 6.898438 Z M 160.5625 23.539063 L 152.160156 1.207031 L 144.894531 1.207031 L 136.488281 23.539063 L 143.019531 23.539063 L 144.125 20.324219 L 152.929688 20.324219 L 154.03125 23.539063 Z M 127.015625 23.941406 C 132.40625 23.941406 135.320313 20.792969 136.757813 17.945313 L 131.804688 15.601563 C 131.066406 17.378906 129.160156 18.851563 127.015625 18.851563 C 123.367188 18.851563 120.789063 16.039063 120.789063 12.390625 C 120.789063 8.707031 123.367188 5.929688 127.015625 5.929688 C 129.160156 5.929688 131.066406 7.402344 131.804688 9.175781 L 136.757813 6.796875 C 135.320313 3.886719 132.40625 0.839844 127.015625 0.839844 C 120.152344 0.839844 114.929688 5.492188 114.929688 12.390625 C 114.929688 19.253906 120.152344 23.941406 127.015625 23.941406 M 102.039063 23.941406 C 109.203125 23.941406 112.554688 20.023438 112.554688 14.464844 L 112.554688 1.207031 L 106.726563 1.207031 L 106.726563 14.296875 C 106.726563 16.941406 105.121094 18.851563 102.039063 18.851563 C 98.929688 18.851563 97.320313 16.941406 97.320313 14.296875 L 97.320313 1.207031 L 91.460938 1.207031 L 91.460938 14.5 C 91.460938 19.988281 94.878906 23.941406 102.039063 23.941406 M 89.855469 23.539063 L 89.855469 18.515625 L 80.882813 18.515625 L 80.882813 1.207031 L 75.125 1.207031 L 75.125 23.539063 L 89.855469 23.539063 "/>
</g>
<g clip-path="url(#clip2)" clip-rule="nonzero">
<path style=" stroke:none;fill-rule:nonzero;fill:rgb(95.684814%,49.01886%,18.823242%);fill-opacity:1;" d="M 66.285156 23.539063 L 66.285156 6.230469 L 72.515625 6.230469 L 72.515625 1.207031 L 54.269531 1.207031 L 54.269531 6.230469 L 60.527344 6.230469 L 60.527344 23.539063 Z M 51.554688 23.539063 L 51.554688 1.207031 L 45.765625 1.207031 L 45.765625 13.492188 L 36.726563 1.207031 L 30.800781 1.207031 L 30.800781 23.539063 L 36.558594 23.539063 L 36.558594 10.613281 L 46 23.539063 Z M 27.050781 7.367188 L 21.894531 7.367188 L 21.894531 23.539063 L 27.050781 23.539063 Z M 24.472656 5.929688 C 26.113281 5.929688 27.453125 4.589844 27.453125 2.949219 C 27.453125 1.308594 26.113281 0.00390625 24.472656 0.00390625 C 22.832031 0.00390625 21.527344 1.308594 21.527344 2.949219 C 21.527344 4.589844 22.832031 5.929688 24.472656 5.929688 M 9.910156 23.941406 C 15.902344 23.941406 19.21875 20.960938 19.21875 16.472656 C 19.21875 8.171875 6.59375 10.246094 6.59375 7.503906 C 6.59375 6.53125 7.332031 5.960938 9.007813 5.960938 C 11.214844 5.960938 13.660156 6.730469 15.535156 8.304688 L 18.679688 3.984375 C 16.304688 1.945313 13.191406 0.871094 9.609375 0.871094 C 3.882813 0.871094 0.738281 4.222656 0.738281 7.96875 C 0.738281 16.574219 13.359375 14.128906 13.359375 17.074219 C 13.359375 18.179688 12.152344 18.851563 10.210938 18.851563 C 7.132813 18.851563 4.652344 17.511719 3.046875 15.90625 L 0 20.390625 C 2.242188 22.5 5.390625 23.941406 9.910156 23.941406 "/>
</g>
</g>
</svg>
