<?xml version="1.0" encoding="utf-8"?>
<!-- Generator: Adobe Illustrator 23.0.5, SVG Export Plug-In . SVG Version: 6.00 Build 0)  -->
<svg version="1.1" id="logo_2019" xmlns="http://www.w3.org/2000/svg" xmlns:xlink="http://www.w3.org/1999/xlink" x="0px" y="0px"
	 viewBox="0 0 218.7 101.6" style="enable-background:new 0 0 218.7 101.6;" xml:space="preserve">
<style type="text/css">
	.st0{fill:#000099;}
	.st1{fill:#EA650D;}
	.st2{fill:#FFFFFF;}
	.st3{fill:none;}
</style>
<g>
	<path class="st0" d="M152.4-0.1l-21.6,48.7H90.1L111.7,0h40.7V-0.1z M66.6-0.1L45,48.6h40.7L107.3,0H66.6V-0.1z M21.7-0.1L0,48.6
		h40.7L62.3,0H21.7V-0.1z M43.2,53l-21.6,48.6h40.7L83.9,53H43.2z M88.1,53l-21.6,48.6h40.7L128.8,53H88.1z M133.1,53l-21.7,48.6
		h40.7L173.7,53H133.1z M178,53l-21.6,48.6h40.7L218.7,53H178z"/>
	<path class="st1" d="M76.2,35.9l5.4-12.2h7.8l-8.2,18.7c-16.4-3.2-22.6-10.6-18.9-19c4.2-9.5,19.2-15.9,35.6-18.9l-1.8,4
		c-4.7,1.1-21.7,4.9-26,14.8C67.7,28.6,69.9,32.6,76.2,35.9 M149.3,64.3c1.6,0,2.8,0.6,3.6,1.8c1.4,2.1,0.9,5.9-1.2,10.8
		c-4,8.9-10,13-13.9,13c-1.6,0-2.9-0.6-3.6-1.8c-1.4-2.1-1-5.8,1.1-10.4C138.7,69.7,144.4,64.3,149.3,64.3L149.3,64.3z M134.1,95.5
		c6.4,0,11.7-3.8,15.1-6.9c3.7-3.5,7-8.1,8.9-12.4c2.9-6.5,3.4-11.7,1.4-14.7c-1.3-2-3.6-3-6.8-3c-9.9,0-19.7,10.3-24,19.9
		c-2.6,6-3,11.1-1.1,14.1C128.9,94.5,131.1,95.5,134.1,95.5L134.1,95.5z"/>
	<path class="st2" d="M100.4,42.6l1.8-4c4.7-1.1,21.7-4.9,26-14.8c2.3-5.2,0.1-9.2-6.2-12.5l-8.2,18.5H106l11-25.1
		c16.4,3.2,22.6,10.6,18.9,19C131.8,33.2,116.8,39.6,100.4,42.6 M31.3,35.9c-6.3-3.4-8.5-7.3-6.2-12.5c4.4-9.9,21.3-13.7,26-14.8
		l1.8-4c-16.4,3-31.4,9.4-35.6,18.9c-3.7,8.5,2.5,15.8,18.9,19l8.2-18.7h-7.8L31.3,35.9 M52.8,89c-6.3-3.4-8.5-7.3-6.2-12.5
		c4.3-9.9,21.3-13.8,26-14.8l1.8-4C58,60.7,43,67.1,38.8,76.6c-3.7,8.5,2.5,15.8,18.9,19l8.2-18.7h-7.8L52.8,89 M102.3,94.6
		c0.9-2.1,6.1-13.7,6.3-14.2l2.3-5.1c0.5-1.2,6-13,7.4-16h-5.9c-0.8,1.8-4.3,9.8-4.7,10.7l-1.6,3.4H92l1.3-2.7
		c0.4-0.8,4.2-9,5.3-11.4h-6c-0.9,2.3-6.2,14.2-6.5,14.8l-2.5,5.5c-0.4,0.9-5.3,11.7-6.9,15h5.9c0.8-1.9,4.4-10,5.4-12.2l1.6-3.3
		h13.8l-2,4.7c-0.3,0.8-3.8,8.2-5.1,10.8L102.3,94.6z M188.3,94.4h6.9c-0.9-2.8-5.4-14.4-5.7-16c5.3-3.1,11.7-8.2,12.8-10.5
		c0.9-2,1.3-3.6,0.4-5.2c-0.9-1.5-3.1-2.2-6.5-2.7c-3.5-0.5-8.7-0.7-12.5-0.7c-0.8,2.1-5.4,12.1-5.9,13.2l-1.9,4.2l-0.5,1.2
		c-1.7,3.6-6.4,14-7.8,16.8h6.6c0.9-2.1,6-13.5,6.9-15.4l7-15.1h0.3c2.9,0,4.9,0.7,5.7,1.9c0.7,1,0.6,2.3-0.1,3.8
		c-1.9,4.2-7.1,7.2-9.5,8.4L188.3,94.4z"/>
</g>
<rect x="-28.1" y="-28.4" class="st3" width="275" height="158.4"/>
</svg>
