<?xml version="1.0" encoding="UTF-8"?><svg xmlns="http://www.w3.org/2000/svg" viewBox="0 0 94.27 67"><defs><style>.d{fill:#1d1d1b;}</style></defs><g id="a"/><g id="b"><g id="c"><path class="d" d="M94.27,63.93v3.07h-22.08v-3.07l2.5-.58c1.73-.38,2.21-.96,2.21-2.88v-18.72c0-6.14-.29-8.35-1.25-10.37-1.25-2.69-3.46-4.13-6.62-4.13-1.92,0-3.74,.48-6.14,1.73v31.49c0,1.92,.48,2.5,2.11,2.88l2.78,.58v3.07h-22.56v-3.07l2.78-.58c1.73-.38,2.21-1.06,2.21-2.88V8.64h-17.57V59.9c0,2.11,.67,2.88,2.4,3.17l5.38,.77v3.17H10.46v-3.17l5.47-.77c1.73-.29,2.4-1.15,2.4-3.17V8.64h-4.42c-7.68,0-10.66,3.46-10.75,12.48H0V1.15c1.44,1.44,3.94,2.02,8.35,2.02H43.77L63.74,0c-.58,1.54-.86,3.36-.86,5.47V26.88c5.09-6.05,9.7-8.74,14.78-8.74s9.5,3.36,11.14,9.02c.58,2.02,.86,4.7,.86,8.74v3.17l-.29,21.41c0,1.92,.48,2.5,2.21,2.88l2.69,.58Z"/></g></g></svg>